<?xml version="1.0" encoding="UTF-8" standalone="yes"?><svg xmlns="http://www.w3.org/2000/svg" xmlns:xlink="http://www.w3.org/1999/xlink" height="456px" style="width:561px;height:456px;" version="1.1" viewBox="0 0 561 456" width="561px"><defs><filter height="300%" id="f1" width="300%" x="-1" y="-1"><feGaussianBlur result="blurOut" stdDeviation="2.0"/><feColorMatrix in="blurOut" result="blurOut2" type="matrix" values="0 0 0 0 0 0 0 0 0 0 0 0 0 0 0 0 0 0 .4 0"/><feOffset dx="4.0" dy="4.0" in="blurOut2" result="blurOut3"/><feBlend in="SourceGraphic" in2="blurOut3" mode="normal"/></filter></defs><g><text fill="#000000" font-family="sans-serif" font-size="18" lengthAdjust="spacingAndGlyphs" textLength="179" x="197" y="17.4023">Music Providers Tree</text><rect fill="#77DAAA" filter="url(#f1)" height="36.4883" style="stroke: #000000; stroke-width: 1.5;" width="52" x="376.5" y="29.1992"/><text fill="#000000" font-family="sans-serif" font-size="14" lengthAdjust="spacingAndGlyphs" textLength="32" x="386.5" y="52.7344">Root</text><rect fill="#77DAAA" filter="url(#f1)" height="36.4883" style="stroke: #000000; stroke-width: 1.5;" width="68" x="266.5" y="125.1992"/><text fill="#000000" font-family="sans-serif" font-size="14" lengthAdjust="spacingAndGlyphs" textLength="48" x="276.5" y="148.7344">System</text><rect fill="#77CCFA" filter="url(#f1)" height="36.4883" style="stroke: #000000; stroke-width: 1.5;" width="66" x="369.5" y="125.1992"/><text fill="#000000" font-family="sans-serif" font-size="14" lengthAdjust="spacingAndGlyphs" textLength="46" x="379.5" y="148.7344">Search</text><rect fill="#77CCFA" filter="url(#f1)" height="36.4883" style="stroke: #000000; stroke-width: 1.5;" width="84" x="470.5" y="125.1992"/><text fill="#000000" font-family="sans-serif" font-size="14" lengthAdjust="spacingAndGlyphs" textLength="64" x="480.5" y="148.7344">VoicePlay</text><rect fill="#77DAAA" filter="url(#f1)" height="36.4883" style="stroke: #000000; stroke-width: 1.5;" width="53" x="128" y="221.1992"/><text fill="#000000" font-family="sans-serif" font-size="14" lengthAdjust="spacingAndGlyphs" textLength="33" x="138" y="244.7344">Mine</text><rect fill="#FEFECE" filter="url(#f1)" height="36.4883" style="stroke: #000000; stroke-width: 1.5;" width="75" x="6" y="317.1992"/><text fill="#000000" font-family="sans-serif" font-size="14" lengthAdjust="spacingAndGlyphs" textLength="55" x="16" y="340.7344">Favorite</text><rect fill="#FEFECE" filter="url(#f1)" height="36.4883" style="stroke: #000000; stroke-width: 1.5;" width="77" x="116" y="317.1992"/><text fill="#000000" font-family="sans-serif" font-size="14" lengthAdjust="spacingAndGlyphs" textLength="57" x="126" y="340.7344">Recently</text><rect fill="#77DAAA" filter="url(#f1)" height="36.4883" style="stroke: #000000; stroke-width: 1.5;" width="66" x="267.5" y="221.1992"/><text fill="#000000" font-family="sans-serif" font-size="14" lengthAdjust="spacingAndGlyphs" textLength="46" x="277.5" y="244.7344">Offline</text><rect fill="#FEFECE" filter="url(#f1)" height="36.4883" style="stroke: #000000; stroke-width: 1.5;" width="89" x="228" y="317.1992"/><text fill="#000000" font-family="sans-serif" font-size="14" lengthAdjust="spacingAndGlyphs" textLength="69" x="238" y="340.7344">Download</text><rect fill="#FEFECE" filter="url(#f1)" height="36.4883" style="stroke: #000000; stroke-width: 1.5;" width="55" x="352" y="317.1992"/><text fill="#000000" font-family="sans-serif" font-size="14" lengthAdjust="spacingAndGlyphs" textLength="35" x="362" y="340.7344">Local</text><rect fill="#77DAAA" filter="url(#f1)" height="36.4883" style="stroke: #000000; stroke-width: 1.5;" width="44" x="424.5" y="221.1992"/><text fill="#000000" font-family="sans-serif" font-size="14" lengthAdjust="spacingAndGlyphs" textLength="24" x="434.5" y="244.7344">Hot</text><rect fill="#FACC77" filter="url(#f1)" height="36.4883" style="stroke: #000000; stroke-width: 1.5;" width="65" x="442" y="317.1992"/><text fill="#000000" font-family="sans-serif" font-size="14" lengthAdjust="spacingAndGlyphs" textLength="45" x="452" y="340.7344">Online</text><rect fill="#FEFECE" filter="url(#f1)" height="36.4883" style="stroke: #000000; stroke-width: 1.5;" width="426" x="59.5" y="413.1992"/><text fill="#000000" font-family="sans-serif" font-size="14" lengthAdjust="spacingAndGlyphs" textLength="406" x="69.5" y="436.7344">mediaId: /__SYSTEM_ROOT__/__OFFLINE__/__DOWNLOAD__</text><path d="M379.775,69.1422 C361.507,85.9772 336.162,109.3342 319.09,125.0672 " fill="none" style="stroke: #A80036; stroke-width: 1.0;"/><polygon fill="#A80036" points="383.792,65.4402,374.4636,68.5995,380.1158,68.8292,379.886,74.4814,383.792,65.4402" style="stroke: #A80036; stroke-width: 1.0;"/><path d="M402.5,70.8612 C402.5,87.5392 402.5,109.8632 402.5,125.0672 " fill="none" style="stroke: #A80036; stroke-width: 1.0;"/><polygon fill="#A80036" points="402.5,65.4402,398.5,74.4402,402.5,70.4402,406.5,74.4402,402.5,65.4402" style="stroke: #A80036; stroke-width: 1.0;"/><path d="M426.252,68.4962 C445.971,85.3472 473.71,109.0512 492.356,124.9852 " fill="none" style="stroke: #A80036; stroke-width: 1.0;"/><polygon fill="#A80036" points="422.42,65.2222,426.6617,74.1109,426.2205,68.4712,431.8601,68.03,422.42,65.2222" style="stroke: #A80036; stroke-width: 1.0;"/><path d="M269.627,164.0762 C243.417,180.9512 206.192,204.9182 181.236,220.9852 " fill="none" style="stroke: #A80036; stroke-width: 1.0;"/><polygon fill="#A80036" points="274.061,161.2222,264.3285,162.7315,269.8571,163.9291,268.6595,169.4577,274.061,161.2222" style="stroke: #A80036; stroke-width: 1.0;"/><path d="M300.5,166.8612 C300.5,183.5392 300.5,205.8632 300.5,221.0672 " fill="none" style="stroke: #A80036; stroke-width: 1.0;"/><polygon fill="#A80036" points="300.5,161.4402,296.5,170.4402,300.5,166.4402,304.5,170.4402,300.5,161.4402" style="stroke: #A80036; stroke-width: 1.0;"/><path d="M331.286,164.0202 C359.059,181.9012 399.251,207.7792 424.083,223.7662 " fill="none" style="stroke: #A80036; stroke-width: 1.0;"/><polygon fill="#A80036" points="326.939,161.2222,332.3405,169.4577,331.1429,163.9291,336.6715,162.7315,326.939,161.2222" style="stroke: #A80036; stroke-width: 1.0;"/><path d="M130.532,260.4962 C110.634,277.3472 82.643,301.0512 63.8268,316.9852 " fill="none" style="stroke: #A80036; stroke-width: 1.0;"/><polygon fill="#A80036" points="134.399,257.2222,124.9459,259.9861,130.5834,260.4535,130.116,266.091,134.399,257.2222" style="stroke: #A80036; stroke-width: 1.0;"/><path d="M154.5,262.8612 C154.5,279.5392 154.5,301.8632 154.5,317.0672 " fill="none" style="stroke: #A80036; stroke-width: 1.0;"/><polygon fill="#A80036" points="154.5,257.4402,150.5,266.4402,154.5,262.4402,158.5,266.4402,154.5,257.4402" style="stroke: #A80036; stroke-width: 1.0;"/><path d="M293.879,262.4272 C288.898,279.1502 282.171,301.7312 277.603,317.0672 " fill="none" style="stroke: #A80036; stroke-width: 1.0;"/><polygon fill="#A80036" points="295.364,257.4402,288.9592,264.9221,293.9354,262.2318,296.6257,267.2079,295.364,257.4402" style="stroke: #A80036; stroke-width: 1.0;"/><path d="M318.459,261.5682 C332.579,278.3692 351.991,301.4672 365.102,317.0672 " fill="none" style="stroke: #A80036; stroke-width: 1.0;"/><polygon fill="#A80036" points="314.99,257.4402,317.7193,266.9034,318.2073,261.2676,323.8431,261.7556,314.99,257.4402" style="stroke: #A80036; stroke-width: 1.0;"/><path d="M453.121,262.4272 C458.102,279.1502 464.829,301.7312 469.397,317.0672 " fill="none" style="stroke: #A80036; stroke-width: 1.0;"/><polygon fill="#A80036" points="451.636,257.4402,450.3743,267.2079,453.0646,262.2318,458.0408,264.9221,451.636,257.4402" style="stroke: #A80036; stroke-width: 1.0;"/><path d="M272.5,353.4402 C272.5,370.4009 272.5,396.1447 272.5,413.0675 " fill="none" style="stroke: #A80036; stroke-width: 1.0;"/></g></svg>