<?xml version="1.0" encoding="UTF-8" standalone="yes"?><svg xmlns="http://www.w3.org/2000/svg" xmlns:xlink="http://www.w3.org/1999/xlink" height="477px" style="width:584px;height:477px;" version="1.1" viewBox="0 0 584 477" width="584px"><defs><filter height="300%" id="f1" width="300%" x="-1" y="-1"><feGaussianBlur result="blurOut" stdDeviation="2.0"/><feColorMatrix in="blurOut" result="blurOut2" type="matrix" values="0 0 0 0 0 0 0 0 0 0 0 0 0 0 0 0 0 0 .4 0"/><feOffset dx="4.0" dy="4.0" in="blurOut2" result="blurOut3"/><feBlend in="SourceGraphic" in2="blurOut3" mode="normal"/></filter></defs><g><text fill="#000000" font-family="sans-serif" font-size="18" lengthAdjust="spacingAndGlyphs" textLength="266" x="165" y="17.4023">Local Music Player Background</text><rect fill="#FFFFFF" filter="url(#f1)" height="425" style="stroke: #000000; stroke-width: 2.0;" width="370" x="22" y="45.1992"/><text fill="#000000" font-family="sans-serif" font-size="14" font-weight="bold" lengthAdjust="spacingAndGlyphs" textLength="84" x="165" y="60.7344">Background</text><rect fill="#FEFECE" filter="url(#f1)" height="36.4883" style="stroke: #000000; stroke-width: 1.5;" width="168" x="208" y="80.1992"/><text fill="#000000" font-family="sans-serif" font-size="14" lengthAdjust="spacingAndGlyphs" textLength="148" x="218" y="103.7344">MediaPlaybackService</text><rect fill="#FEFECE" filter="url(#f1)" height="36.4883" style="stroke: #000000; stroke-width: 1.5;" width="129" x="133.5" y="208.1992"/><text fill="#000000" font-family="sans-serif" font-size="14" lengthAdjust="spacingAndGlyphs" textLength="109" x="143.5" y="231.7344">MusicController</text><rect fill="#FEFECE" filter="url(#f1)" height="36.4883" style="stroke: #000000; stroke-width: 1.5;" width="104" x="183" y="321.1992"/><text fill="#000000" font-family="sans-serif" font-size="14" lengthAdjust="spacingAndGlyphs" textLength="84" x="193" y="344.7344">MusicQueue</text><rect fill="#FEFECE" filter="url(#f1)" height="36.4883" style="stroke: #000000; stroke-width: 1.5;" width="89" x="45.5" y="321.1992"/><text fill="#000000" font-family="sans-serif" font-size="14" lengthAdjust="spacingAndGlyphs" textLength="69" x="55.5" y="344.7344">MusicItem</text><rect fill="#77CC77" filter="url(#f1)" height="36.4883" style="stroke: #000000; stroke-width: 1.5;" width="123" x="243.5" y="418.1992"/><text fill="#000000" font-family="sans-serif" font-size="14" lengthAdjust="spacingAndGlyphs" textLength="103" x="253.5" y="441.7344">MusicProviders</text><rect fill="#FEFECE" filter="url(#f1)" height="36.4883" style="stroke: #000000; stroke-width: 1.5;" width="161" x="38.5" y="418.1992"/><text fill="#000000" font-family="sans-serif" font-size="14" lengthAdjust="spacingAndGlyphs" textLength="141" x="48.5" y="441.7344">AudioFocusManager</text><rect fill="#FEFECE" filter="url(#f1)" height="36.4883" style="stroke: #000000; stroke-width: 1.5;" width="169" x="408.5" y="208.1992"/><text fill="#000000" font-family="sans-serif" font-size="14" lengthAdjust="spacingAndGlyphs" textLength="149" x="418.5" y="231.7344">Media Session System</text><path d="M311.146,120.5892 C316.733,128.1472 322.11,137.0552 325,146.1992 C356.294,245.2282 324.089,372.5392 310.464,418.07 " fill="none" style="stroke: #A80036; stroke-width: 1.0;"/><polygon fill="#A80036" points="308.035,116.5352,310.3407,126.1104,311.0789,120.5019,316.6874,121.2401,308.035,116.5352" style="stroke: #A80036; stroke-width: 1.0;"/><text fill="#000000" font-family="sans-serif" font-size="13" lengthAdjust="spacingAndGlyphs" textLength="44" x="338" y="287.7676">Musics</text><path d="M252.42,119.0692 C241.26,126.2982 229.996,135.3972 222,146.1992 C208.355,164.6332 202.391,190.8842 199.837,207.9802 " fill="none" style="stroke: #A80036; stroke-width: 1.0;"/><polygon fill="#A80036" points="256.851,116.2902,247.1013,117.6845,252.6154,118.9473,251.3526,124.4614,256.851,116.2902" style="stroke: #A80036; stroke-width: 1.0;"/><text fill="#000000" font-family="sans-serif" font-size="13" lengthAdjust="spacingAndGlyphs" textLength="97" x="223" y="159.7676">metadata, state</text><text fill="#000000" font-family="sans-serif" font-size="13" lengthAdjust="spacingAndGlyphs" textLength="65" x="241" y="175.0781">queue, etc</text><path d="M133.569,246.4972 C120.317,253.2712 107.754,262.2832 99,274.1992 C90.2614,286.0932 88.1269,302.6612 88.1169,315.9602 " fill="none" style="stroke: #A80036; stroke-width: 1.0;"/><polygon fill="#A80036" points="88.2147,321.0652,92.0417,311.9903,88.119,316.0661,84.0431,312.1434,88.2147,321.0652" style="stroke: #A80036; stroke-width: 1.0;"/><polygon fill="#A80036" points="138.085,244.2842,128.243,244.6522,133.595,246.4842,131.763,251.8362,138.085,244.2842" style="stroke: #A80036; stroke-width: 1.0;"/><text fill="#000000" font-family="sans-serif" font-size="13" lengthAdjust="spacingAndGlyphs" textLength="83" x="100" y="287.7676">state/control</text><path d="M192.761,249.5122 C190.821,262.1182 190.127,277.9542 195,291.1992 C198.496,300.7022 204.862,309.5932 211.502,317.0302 " fill="none" style="stroke: #A80036; stroke-width: 1.0;"/><polygon fill="#A80036" points="215.203,321.0062,212.0022,311.692,211.7976,317.3452,206.1445,317.1406,215.203,321.0062" style="stroke: #A80036; stroke-width: 1.0;"/><polygon fill="#A80036" points="193.656,244.3242,188.1842,252.5132,192.806,249.2514,196.0678,253.8732,193.656,244.3242" style="stroke: #A80036; stroke-width: 1.0;"/><text fill="#000000" font-family="sans-serif" font-size="13" lengthAdjust="spacingAndGlyphs" textLength="90" x="196" y="287.7676">queue/control</text><path d="M250.913,361.7952 C263.425,378.7752 280.625,402.1186 292.242,417.8852 " fill="none" style="stroke: #A80036; stroke-width: 1.0;"/><polygon fill="#A80036" points="247.839,357.6232,249.9566,367.2417,250.8046,361.6488,256.3975,362.4968,247.839,357.6232" style="stroke: #A80036; stroke-width: 1.0;"/><path d="M96.8577,362.6642 C102.0168,379.5642 108.983,402.3858 113.715,417.8852 " fill="none" style="stroke: #A80036; stroke-width: 1.0;"/><polygon fill="#A80036" points="95.319,357.6232,94.1213,367.399,96.779,362.4053,101.7727,365.063,95.319,357.6232" style="stroke: #A80036; stroke-width: 1.0;"/><path d="M324.176,119.3692 C361.866,142.9962 423.906,181.8872 461.363,205.3672 " fill="none" style="stroke: #A80036; stroke-width: 1.0; stroke-dasharray: 7.0,7.0;"/><polygon fill="#A80036" points="465.806,208.1522,460.3044,199.9832,461.5694,205.4968,456.0558,206.7618,465.806,208.1522" style="stroke: #A80036; stroke-width: 1.0;"/><polygon fill="#A80036" points="319.527,116.4552,325.0274,124.625,323.7632,119.1112,329.277,117.8471,319.527,116.4552" style="stroke: #A80036; stroke-width: 1.0;"/></g></svg>