<?xml version="1.0" encoding="UTF-8" standalone="yes"?><svg xmlns="http://www.w3.org/2000/svg" xmlns:xlink="http://www.w3.org/1999/xlink" height="527px" style="width:883px;height:527px;" version="1.1" viewBox="0 0 883 527" width="883px"><defs><filter height="300%" id="f1" width="300%" x="-1" y="-1"><feGaussianBlur result="blurOut" stdDeviation="2.0"/><feColorMatrix in="blurOut" result="blurOut2" type="matrix" values="0 0 0 0 0 0 0 0 0 0 0 0 0 0 0 0 0 0 .4 0"/><feOffset dx="4.0" dy="4.0" in="blurOut2" result="blurOut3"/><feBlend in="SourceGraphic" in2="blurOut3" mode="normal"/></filter></defs><g><text fill="#000000" font-family="sans-serif" font-size="18" lengthAdjust="spacingAndGlyphs" textLength="247" x="322.5" y="17.4023">Music Providers Relationship</text><rect fill="#FEFECE" filter="url(#f1)" height="125.7305" style="stroke: #A80036; stroke-width: 1.5;" width="264" x="304" y="29.1992"/><ellipse cx="377.75" cy="45.1992" fill="#ADD1B2" rx="11" ry="11" style="stroke: #A80036; stroke-width: 1.0;"/><path d="M380.7231,50.8423 Q380.1421,51.1411 379.5029,51.2905 Q378.8638,51.4399 378.1582,51.4399 Q375.6514,51.4399 374.3315,49.7881 Q373.0117,48.1362 373.0117,45.0151 Q373.0117,41.8857 374.3315,40.2339 Q375.6514,38.582 378.1582,38.582 Q378.8638,38.582 379.5112,38.7314 Q380.1587,38.8809 380.7231,39.1797 L380.7231,41.9023 Q380.0923,41.3213 379.4988,41.0515 Q378.9053,40.7817 378.2744,40.7817 Q376.9297,40.7817 376.2449,41.8484 Q375.5601,42.915 375.5601,45.0151 Q375.5601,47.1069 376.2449,48.1736 Q376.9297,49.2402 378.2744,49.2402 Q378.9053,49.2402 379.4988,48.9705 Q380.0923,48.7007 380.7231,48.1196 Z "/><text fill="#000000" font-family="sans-serif" font-size="12" lengthAdjust="spacingAndGlyphs" textLength="108" x="398.25" y="49.7344">MediaItemProvider</text><line style="stroke: #A80036; stroke-width: 1.5;" x1="305" x2="567" y1="61.1992" y2="61.1992"/><rect fill="none" height="6" style="stroke: #C82930; stroke-width: 1.0;" width="6" x="312" y="70.1768"/><text fill="#000000" font-family="sans-serif" font-size="11" lengthAdjust="spacingAndGlyphs" textLength="137" x="324" y="75.834">MediaItemProvider parent</text><rect fill="none" height="6" style="stroke: #C82930; stroke-width: 1.0;" width="6" x="312" y="83.1318"/><text fill="#000000" font-family="sans-serif" font-size="11" lengthAdjust="spacingAndGlyphs" textLength="157" x="324" y="88.7891">MediaDescription description</text><line style="stroke: #A80036; stroke-width: 1.5;" x1="305" x2="567" y1="95.1094" y2="95.1094"/><ellipse cx="315" cy="107.0869" fill="#84BE84" rx="3" ry="3" style="stroke: #038048; stroke-width: 1.0;"/><text fill="#000000" font-family="sans-serif" font-size="11" lengthAdjust="spacingAndGlyphs" textLength="54" x="324" y="109.7441">getFullId()</text><ellipse cx="315" cy="120.042" fill="#84BE84" rx="3" ry="3" style="stroke: #038048; stroke-width: 1.0;"/><text fill="#000000" font-family="sans-serif" font-size="11" lengthAdjust="spacingAndGlyphs" textLength="183" x="324" y="122.6992">MediaDescription getDescription()</text><ellipse cx="315" cy="132.9971" fill="#84BE84" rx="3" ry="3" style="stroke: #038048; stroke-width: 1.0;"/><text fill="#000000" font-family="sans-serif" font-size="11" font-style="italic" lengthAdjust="spacingAndGlyphs" textLength="238" x="324" y="135.6543">Observable&lt;String&gt; getItemsChangeEvent()</text><ellipse cx="315" cy="145.9521" fill="#84BE84" rx="3" ry="3" style="stroke: #038048; stroke-width: 1.0;"/><text fill="#000000" font-family="sans-serif" font-size="11" font-style="italic" lengthAdjust="spacingAndGlyphs" textLength="222" x="324" y="148.6094">Observable&lt;MediaItem&gt; getLatestItems()</text><rect fill="#FEFECE" filter="url(#f1)" height="86.8652" style="stroke: #A80036; stroke-width: 1.5;" width="355" x="68.5" y="215.1992"/><ellipse cx="199.75" cy="231.1992" fill="#ADD1B2" rx="11" ry="11" style="stroke: #A80036; stroke-width: 1.0;"/><path d="M202.7231,236.8423 Q202.1421,237.1411 201.5029,237.2905 Q200.8638,237.4399 200.1582,237.4399 Q197.6514,237.4399 196.3315,235.7881 Q195.0117,234.1362 195.0117,231.0151 Q195.0117,227.8857 196.3315,226.2339 Q197.6514,224.582 200.1582,224.582 Q200.8638,224.582 201.5112,224.7314 Q202.1587,224.8809 202.7231,225.1797 L202.7231,227.9023 Q202.0923,227.3213 201.4988,227.0515 Q200.9053,226.7817 200.2744,226.7817 Q198.9297,226.7817 198.2449,227.8484 Q197.5601,228.915 197.5601,231.0151 Q197.5601,233.1069 198.2449,234.1736 Q198.9297,235.2402 200.2744,235.2402 Q200.9053,235.2402 201.4988,234.9705 Q202.0923,234.7007 202.7231,234.1196 Z "/><text fill="#000000" font-family="sans-serif" font-size="12" lengthAdjust="spacingAndGlyphs" textLength="84" x="220.25" y="235.7344">GroupProvider</text><line style="stroke: #A80036; stroke-width: 1.5;" x1="69.5" x2="422.5" y1="247.1992" y2="247.1992"/><line style="stroke: #A80036; stroke-width: 1.5;" x1="69.5" x2="422.5" y1="255.1992" y2="255.1992"/><ellipse cx="79.5" cy="267.1768" fill="#84BE84" rx="3" ry="3" style="stroke: #038048; stroke-width: 1.0;"/><text fill="#000000" font-family="sans-serif" font-size="11" lengthAdjust="spacingAndGlyphs" textLength="278" x="88.5" y="269.834">Observable&lt;MediaItemProvider&gt; getLatestGroups()</text><ellipse cx="79.5" cy="280.1318" fill="#84BE84" rx="3" ry="3" style="stroke: #038048; stroke-width: 1.0;"/><text fill="#000000" font-family="sans-serif" font-size="11" lengthAdjust="spacingAndGlyphs" textLength="329" x="88.5" y="282.7891">Single&lt;MusicProvider&gt; findMusicProviderFor(String mediaId)</text><ellipse cx="79.5" cy="293.0869" fill="#84BE84" rx="3" ry="3" style="stroke: #038048; stroke-width: 1.0;"/><text fill="#000000" font-family="sans-serif" font-size="11" lengthAdjust="spacingAndGlyphs" textLength="321" x="88.5" y="295.7441">Single&lt;MediaItemProvider&gt; findProviderFor(String mediaId)</text><rect fill="#FEFECE" filter="url(#f1)" height="86.8652" style="stroke: #A80036; stroke-width: 1.5;" width="334" x="459" y="215.1992"/><ellipse cx="581.75" cy="231.1992" fill="#ADD1B2" rx="11" ry="11" style="stroke: #A80036; stroke-width: 1.0;"/><path d="M584.7231,236.8423 Q584.1421,237.1411 583.5029,237.2905 Q582.8638,237.4399 582.1582,237.4399 Q579.6514,237.4399 578.3315,235.7881 Q577.0117,234.1362 577.0117,231.0151 Q577.0117,227.8857 578.3315,226.2339 Q579.6514,224.582 582.1582,224.582 Q582.8638,224.582 583.5112,224.7314 Q584.1587,224.8809 584.7231,225.1797 L584.7231,227.9023 Q584.0923,227.3213 583.4988,227.0515 Q582.9053,226.7817 582.2744,226.7817 Q580.9297,226.7817 580.2449,227.8484 Q579.5601,228.915 579.5601,231.0151 Q579.5601,233.1069 580.2449,234.1736 Q580.9297,235.2402 582.2744,235.2402 Q582.9053,235.2402 583.4988,234.9705 Q584.0923,234.7007 584.7231,234.1196 Z "/><text fill="#000000" font-family="sans-serif" font-size="12" lengthAdjust="spacingAndGlyphs" textLength="80" x="602.25" y="235.7344">MusicProvider</text><line style="stroke: #A80036; stroke-width: 1.5;" x1="460" x2="792" y1="247.1992" y2="247.1992"/><line style="stroke: #A80036; stroke-width: 1.5;" x1="460" x2="792" y1="255.1992" y2="255.1992"/><ellipse cx="470" cy="267.1768" fill="#84BE84" rx="3" ry="3" style="stroke: #038048; stroke-width: 1.0;"/><text fill="#000000" font-family="sans-serif" font-size="11" lengthAdjust="spacingAndGlyphs" textLength="255" x="479" y="269.834">Observable&lt;MediaMetadata&gt; getLatestMusics()</text><ellipse cx="470" cy="280.1318" fill="#84BE84" rx="3" ry="3" style="stroke: #038048; stroke-width: 1.0;"/><text fill="#000000" font-family="sans-serif" font-size="11" lengthAdjust="spacingAndGlyphs" textLength="308" x="479" y="282.7891">Single&lt;MediaMetadata&gt; findRawMusicFor(String mediaId)</text><ellipse cx="470" cy="293.0869" fill="#84BE84" rx="3" ry="3" style="stroke: #038048; stroke-width: 1.0;"/><text fill="#000000" font-family="sans-serif" font-size="11" lengthAdjust="spacingAndGlyphs" textLength="219" x="479" y="295.7441">Single&lt;Uri&gt; getAudioUri(String mediaId)</text><rect fill="#FEFECE" filter="url(#f1)" height="48" style="stroke: #A80036; stroke-width: 1.5;" width="68" x="119" y="470.1992"/><ellipse cx="134" cy="486.1992" fill="#ADD1B2" rx="11" ry="11" style="stroke: #A80036; stroke-width: 1.0;"/><path d="M136.9731,491.8423 Q136.3921,492.1411 135.7529,492.2905 Q135.1138,492.4399 134.4082,492.4399 Q131.9014,492.4399 130.5815,490.7881 Q129.2617,489.1362 129.2617,486.0151 Q129.2617,482.8857 130.5815,481.2339 Q131.9014,479.582 134.4082,479.582 Q135.1138,479.582 135.7612,479.7314 Q136.4087,479.8809 136.9731,480.1797 L136.9731,482.9023 Q136.3423,482.3213 135.7488,482.0515 Q135.1553,481.7817 134.5244,481.7817 Q133.1797,481.7817 132.4949,482.8484 Q131.8101,483.915 131.8101,486.0151 Q131.8101,488.1069 132.4949,489.1736 Q133.1797,490.2402 134.5244,490.2402 Q135.1553,490.2402 135.7488,489.9705 Q136.3423,489.7007 136.9731,489.1196 Z "/><text fill="#000000" font-family="sans-serif" font-size="12" lengthAdjust="spacingAndGlyphs" textLength="36" x="148" y="490.7344">Online</text><line style="stroke: #A80036; stroke-width: 1.5;" x1="120" x2="186" y1="502.1992" y2="502.1992"/><line style="stroke: #A80036; stroke-width: 1.5;" x1="120" x2="186" y1="510.1992" y2="510.1992"/><rect fill="#FEFECE" filter="url(#f1)" height="48" style="stroke: #A80036; stroke-width: 1.5;" width="81" x="222.5" y="470.1992"/><ellipse cx="237.5" cy="486.1992" fill="#ADD1B2" rx="11" ry="11" style="stroke: #A80036; stroke-width: 1.0;"/><path d="M240.4731,491.8423 Q239.8921,492.1411 239.2529,492.2905 Q238.6138,492.4399 237.9082,492.4399 Q235.4014,492.4399 234.0815,490.7881 Q232.7617,489.1362 232.7617,486.0151 Q232.7617,482.8857 234.0815,481.2339 Q235.4014,479.582 237.9082,479.582 Q238.6138,479.582 239.2612,479.7314 Q239.9087,479.8809 240.4731,480.1797 L240.4731,482.9023 Q239.8423,482.3213 239.2488,482.0515 Q238.6553,481.7817 238.0244,481.7817 Q236.6797,481.7817 235.9949,482.8484 Q235.3101,483.915 235.3101,486.0151 Q235.3101,488.1069 235.9949,489.1736 Q236.6797,490.2402 238.0244,490.2402 Q238.6553,490.2402 239.2488,489.9705 Q239.8423,489.7007 240.4731,489.1196 Z "/><text fill="#000000" font-family="sans-serif" font-size="12" lengthAdjust="spacingAndGlyphs" textLength="49" x="251.5" y="490.7344">Personal</text><line style="stroke: #A80036; stroke-width: 1.5;" x1="223.5" x2="302.5" y1="502.1992" y2="502.1992"/><line style="stroke: #A80036; stroke-width: 1.5;" x1="223.5" x2="302.5" y1="510.1992" y2="510.1992"/><rect fill="#FEFECE" filter="url(#f1)" height="48" style="stroke: #A80036; stroke-width: 1.5;" width="89" x="338.5" y="470.1992"/><ellipse cx="353.5" cy="486.1992" fill="#ADD1B2" rx="11" ry="11" style="stroke: #A80036; stroke-width: 1.0;"/><path d="M356.4731,491.8423 Q355.8921,492.1411 355.2529,492.2905 Q354.6138,492.4399 353.9082,492.4399 Q351.4014,492.4399 350.0815,490.7881 Q348.7617,489.1362 348.7617,486.0151 Q348.7617,482.8857 350.0815,481.2339 Q351.4014,479.582 353.9082,479.582 Q354.6138,479.582 355.2612,479.7314 Q355.9087,479.8809 356.4731,480.1797 L356.4731,482.9023 Q355.8423,482.3213 355.2488,482.0515 Q354.6553,481.7817 354.0244,481.7817 Q352.6797,481.7817 351.9949,482.8484 Q351.3101,483.915 351.3101,486.0151 Q351.3101,488.1069 351.9949,489.1736 Q352.6797,490.2402 354.0244,490.2402 Q354.6553,490.2402 355.2488,489.9705 Q355.8423,489.7007 356.4731,489.1196 Z "/><text fill="#000000" font-family="sans-serif" font-size="12" lengthAdjust="spacingAndGlyphs" textLength="57" x="367.5" y="490.7344">Download</text><line style="stroke: #A80036; stroke-width: 1.5;" x1="339.5" x2="426.5" y1="502.1992" y2="502.1992"/><line style="stroke: #A80036; stroke-width: 1.5;" x1="339.5" x2="426.5" y1="510.1992" y2="510.1992"/><rect fill="#FEFECE" filter="url(#f1)" height="48" style="stroke: #A80036; stroke-width: 1.5;" width="72" x="463" y="470.1992"/><ellipse cx="478" cy="486.1992" fill="#ADD1B2" rx="11" ry="11" style="stroke: #A80036; stroke-width: 1.0;"/><path d="M480.9731,491.8423 Q480.3921,492.1411 479.7529,492.2905 Q479.1138,492.4399 478.4082,492.4399 Q475.9014,492.4399 474.5815,490.7881 Q473.2617,489.1362 473.2617,486.0151 Q473.2617,482.8857 474.5815,481.2339 Q475.9014,479.582 478.4082,479.582 Q479.1138,479.582 479.7612,479.7314 Q480.4087,479.8809 480.9731,480.1797 L480.9731,482.9023 Q480.3423,482.3213 479.7488,482.0515 Q479.1553,481.7817 478.5244,481.7817 Q477.1797,481.7817 476.4949,482.8484 Q475.8101,483.915 475.8101,486.0151 Q475.8101,488.1069 476.4949,489.1736 Q477.1797,490.2402 478.5244,490.2402 Q479.1553,490.2402 479.7488,489.9705 Q480.3423,489.7007 480.9731,489.1196 Z "/><text fill="#000000" font-family="sans-serif" font-size="12" lengthAdjust="spacingAndGlyphs" textLength="40" x="492" y="490.7344">History</text><line style="stroke: #A80036; stroke-width: 1.5;" x1="464" x2="534" y1="502.1992" y2="502.1992"/><line style="stroke: #A80036; stroke-width: 1.5;" x1="464" x2="534" y1="510.1992" y2="510.1992"/><rect fill="#77CCFA" filter="url(#f1)" height="48" style="stroke: #A80036; stroke-width: 1.5;" width="70" x="570" y="470.1992"/><rect fill="#77CCFA" height="32" style="stroke: #A80036; stroke-width: 1.5;" width="70" x="570" y="470.1992"/><ellipse cx="585" cy="486.1992" fill="#ADD1B2" rx="11" ry="11" style="stroke: #A80036; stroke-width: 1.0;"/><path d="M587.9731,491.8423 Q587.3921,492.1411 586.7529,492.2905 Q586.1138,492.4399 585.4082,492.4399 Q582.9014,492.4399 581.5815,490.7881 Q580.2617,489.1362 580.2617,486.0151 Q580.2617,482.8857 581.5815,481.2339 Q582.9014,479.582 585.4082,479.582 Q586.1138,479.582 586.7612,479.7314 Q587.4087,479.8809 587.9731,480.1797 L587.9731,482.9023 Q587.3423,482.3213 586.7488,482.0515 Q586.1553,481.7817 585.5244,481.7817 Q584.1797,481.7817 583.4949,482.8484 Q582.8101,483.915 582.8101,486.0151 Q582.8101,488.1069 583.4949,489.1736 Q584.1797,490.2402 585.5244,490.2402 Q586.1553,490.2402 586.7488,489.9705 Q587.3423,489.7007 587.9731,489.1196 Z "/><text fill="#000000" font-family="sans-serif" font-size="12" lengthAdjust="spacingAndGlyphs" textLength="38" x="599" y="490.7344">Search</text><line style="stroke: #A80036; stroke-width: 1.5;" x1="571" x2="639" y1="502.1992" y2="502.1992"/><line style="stroke: #A80036; stroke-width: 1.5;" x1="571" x2="639" y1="510.1992" y2="510.1992"/><rect fill="#77CCFA" filter="url(#f1)" height="48" style="stroke: #A80036; stroke-width: 1.5;" width="86" x="675" y="470.1992"/><rect fill="#77CCFA" height="32" style="stroke: #A80036; stroke-width: 1.5;" width="86" x="675" y="470.1992"/><ellipse cx="690" cy="486.1992" fill="#ADD1B2" rx="11" ry="11" style="stroke: #A80036; stroke-width: 1.0;"/><path d="M692.9731,491.8423 Q692.3921,492.1411 691.7529,492.2905 Q691.1138,492.4399 690.4082,492.4399 Q687.9014,492.4399 686.5815,490.7881 Q685.2617,489.1362 685.2617,486.0151 Q685.2617,482.8857 686.5815,481.2339 Q687.9014,479.582 690.4082,479.582 Q691.1138,479.582 691.7612,479.7314 Q692.4087,479.8809 692.9731,480.1797 L692.9731,482.9023 Q692.3423,482.3213 691.7488,482.0515 Q691.1553,481.7817 690.5244,481.7817 Q689.1797,481.7817 688.4949,482.8484 Q687.8101,483.915 687.8101,486.0151 Q687.8101,488.1069 688.4949,489.1736 Q689.1797,490.2402 690.5244,490.2402 Q691.1553,490.2402 691.7488,489.9705 Q692.3423,489.7007 692.9731,489.1196 Z "/><text fill="#000000" font-family="sans-serif" font-size="12" lengthAdjust="spacingAndGlyphs" textLength="54" x="704" y="490.7344">VoicePlay</text><line style="stroke: #A80036; stroke-width: 1.5;" x1="676" x2="760" y1="502.1992" y2="502.1992"/><line style="stroke: #A80036; stroke-width: 1.5;" x1="676" x2="760" y1="510.1992" y2="510.1992"/><rect fill="#FEFECE" filter="url(#f1)" height="48" style="stroke: #A80036; stroke-width: 1.5;" width="136" x="6" y="362.1992"/><ellipse cx="21" cy="378.1992" fill="#ADD1B2" rx="11" ry="11" style="stroke: #A80036; stroke-width: 1.0;"/><path d="M23.9731,383.8423 Q23.3921,384.1411 22.7529,384.2905 Q22.1138,384.4399 21.4082,384.4399 Q18.9014,384.4399 17.5815,382.7881 Q16.2617,381.1362 16.2617,378.0151 Q16.2617,374.8857 17.5815,373.2339 Q18.9014,371.582 21.4082,371.582 Q22.1138,371.582 22.7612,371.7314 Q23.4087,371.8809 23.9731,372.1797 L23.9731,374.9023 Q23.3423,374.3213 22.7488,374.0515 Q22.1553,373.7817 21.5244,373.7817 Q20.1797,373.7817 19.4949,374.8484 Q18.8101,375.915 18.8101,378.0151 Q18.8101,380.1069 19.4949,381.1736 Q20.1797,382.2402 21.5244,382.2402 Q22.1553,382.2402 22.7488,381.9705 Q23.3423,381.7007 23.9731,381.1196 Z "/><text fill="#000000" font-family="sans-serif" font-size="12" lengthAdjust="spacingAndGlyphs" textLength="104" x="35" y="382.7344">HotGroupProvider</text><line style="stroke: #A80036; stroke-width: 1.5;" x1="7" x2="141" y1="394.1992" y2="394.1992"/><line style="stroke: #A80036; stroke-width: 1.5;" x1="7" x2="141" y1="402.1992" y2="402.1992"/><rect fill="#FEFECE" filter="url(#f1)" height="48" style="stroke: #A80036; stroke-width: 1.5;" width="146" x="177" y="362.1992"/><ellipse cx="192" cy="378.1992" fill="#ADD1B2" rx="11" ry="11" style="stroke: #A80036; stroke-width: 1.0;"/><path d="M194.9731,383.8423 Q194.3921,384.1411 193.7529,384.2905 Q193.1138,384.4399 192.4082,384.4399 Q189.9014,384.4399 188.5815,382.7881 Q187.2617,381.1362 187.2617,378.0151 Q187.2617,374.8857 188.5815,373.2339 Q189.9014,371.582 192.4082,371.582 Q193.1138,371.582 193.7612,371.7314 Q194.4087,371.8809 194.9731,372.1797 L194.9731,374.9023 Q194.3423,374.3213 193.7488,374.0515 Q193.1553,373.7817 192.5244,373.7817 Q191.1797,373.7817 190.4949,374.8484 Q189.8101,375.915 189.8101,378.0151 Q189.8101,380.1069 190.4949,381.1736 Q191.1797,382.2402 192.5244,382.2402 Q193.1553,382.2402 193.7488,381.9705 Q194.3423,381.7007 194.9731,381.1196 Z "/><text fill="#000000" font-family="sans-serif" font-size="12" lengthAdjust="spacingAndGlyphs" textLength="114" x="206" y="382.7344">StaticGroupProvider</text><line style="stroke: #A80036; stroke-width: 1.5;" x1="178" x2="322" y1="394.1992" y2="394.1992"/><line style="stroke: #A80036; stroke-width: 1.5;" x1="178" x2="322" y1="402.1992" y2="402.1992"/><rect fill="#FEFECE" filter="url(#f1)" height="48" style="stroke: #A80036; stroke-width: 1.5;" width="159" x="361.5" y="362.1992"/><ellipse cx="376.5" cy="378.1992" fill="#ADD1B2" rx="11" ry="11" style="stroke: #A80036; stroke-width: 1.0;"/><path d="M379.4731,383.8423 Q378.8921,384.1411 378.2529,384.2905 Q377.6138,384.4399 376.9082,384.4399 Q374.4014,384.4399 373.0815,382.7881 Q371.7617,381.1362 371.7617,378.0151 Q371.7617,374.8857 373.0815,373.2339 Q374.4014,371.582 376.9082,371.582 Q377.6138,371.582 378.2612,371.7314 Q378.9087,371.8809 379.4731,372.1797 L379.4731,374.9023 Q378.8423,374.3213 378.2488,374.0515 Q377.6553,373.7817 377.0244,373.7817 Q375.6797,373.7817 374.9949,374.8484 Q374.3101,375.915 374.3101,378.0151 Q374.3101,380.1069 374.9949,381.1736 Q375.6797,382.2402 377.0244,382.2402 Q377.6553,382.2402 378.2488,381.9705 Q378.8423,381.7007 379.4731,381.1196 Z "/><text fill="#000000" font-family="sans-serif" font-size="12" lengthAdjust="spacingAndGlyphs" textLength="127" x="390.5" y="382.7344">NeteaseMusicProvider</text><line style="stroke: #A80036; stroke-width: 1.5;" x1="362.5" x2="519.5" y1="394.1992" y2="394.1992"/><line style="stroke: #A80036; stroke-width: 1.5;" x1="362.5" x2="519.5" y1="402.1992" y2="402.1992"/><rect fill="#FEFECE" filter="url(#f1)" height="48" style="stroke: #A80036; stroke-width: 1.5;" width="141" x="555.5" y="362.1992"/><ellipse cx="570.5" cy="378.1992" fill="#ADD1B2" rx="11" ry="11" style="stroke: #A80036; stroke-width: 1.0;"/><path d="M573.4731,383.8423 Q572.8921,384.1411 572.2529,384.2905 Q571.6138,384.4399 570.9082,384.4399 Q568.4014,384.4399 567.0815,382.7881 Q565.7617,381.1362 565.7617,378.0151 Q565.7617,374.8857 567.0815,373.2339 Q568.4014,371.582 570.9082,371.582 Q571.6138,371.582 572.2612,371.7314 Q572.9087,371.8809 573.4731,372.1797 L573.4731,374.9023 Q572.8423,374.3213 572.2488,374.0515 Q571.6553,373.7817 571.0244,373.7817 Q569.6797,373.7817 568.9949,374.8484 Q568.3101,375.915 568.3101,378.0151 Q568.3101,380.1069 568.9949,381.1736 Q569.6797,382.2402 571.0244,382.2402 Q571.6553,382.2402 572.2488,381.9705 Q572.8423,381.7007 573.4731,381.1196 Z "/><text fill="#000000" font-family="sans-serif" font-size="12" lengthAdjust="spacingAndGlyphs" textLength="109" x="584.5" y="382.7344">LocalMusicProvider</text><line style="stroke: #A80036; stroke-width: 1.5;" x1="556.5" x2="695.5" y1="394.1992" y2="394.1992"/><line style="stroke: #A80036; stroke-width: 1.5;" x1="556.5" x2="695.5" y1="402.1992" y2="402.1992"/><rect fill="#FEFECE" filter="url(#f1)" height="48" style="stroke: #A80036; stroke-width: 1.5;" width="142" x="732" y="362.1992"/><ellipse cx="747" cy="378.1992" fill="#ADD1B2" rx="11" ry="11" style="stroke: #A80036; stroke-width: 1.0;"/><path d="M749.9731,383.8423 Q749.3921,384.1411 748.7529,384.2905 Q748.1138,384.4399 747.4082,384.4399 Q744.9014,384.4399 743.5815,382.7881 Q742.2617,381.1362 742.2617,378.0151 Q742.2617,374.8857 743.5815,373.2339 Q744.9014,371.582 747.4082,371.582 Q748.1138,371.582 748.7612,371.7314 Q749.4087,371.8809 749.9731,372.1797 L749.9731,374.9023 Q749.3423,374.3213 748.7488,374.0515 Q748.1553,373.7817 747.5244,373.7817 Q746.1797,373.7817 745.4949,374.8484 Q744.8101,375.915 744.8101,378.0151 Q744.8101,380.1069 745.4949,381.1736 Q746.1797,382.2402 747.5244,382.2402 Q748.1553,382.2402 748.7488,381.9705 Q749.3423,381.7007 749.9731,381.1196 Z "/><text fill="#000000" font-family="sans-serif" font-size="12" lengthAdjust="spacingAndGlyphs" textLength="110" x="761" y="382.7344">StaticMusicProvider</text><line style="stroke: #A80036; stroke-width: 1.5;" x1="733" x2="873" y1="394.1992" y2="394.1992"/><line style="stroke: #A80036; stroke-width: 1.5;" x1="733" x2="873" y1="402.1992" y2="402.1992"/><path d="M348.85,168.6522 C330.429,184.6012 311.612,200.8932 295.194,215.1072 " fill="none" style="stroke: #A80036; stroke-width: 1.0;"/><polygon fill="none" points="344.467,163.1882,364.169,155.3892,353.631,173.7732,344.467,163.1882" style="stroke: #A80036; stroke-width: 1.0;"/><path d="M523.15,168.6522 C541.571,184.6012 560.388,200.8932 576.806,215.1072 " fill="none" style="stroke: #A80036; stroke-width: 1.0;"/><polygon fill="none" points="518.369,173.7732,507.831,155.3892,527.533,163.1882,518.369,173.7732" style="stroke: #A80036; stroke-width: 1.0;"/><path d="M170.949,314.4602 C148.128,331.1122 124.26,348.5272 105.9174,361.9102 " fill="none" style="stroke: #A80036; stroke-width: 1.0;"/><polygon fill="none" points="167.006,308.6722,187.288,302.5382,175.258,319.9812,167.006,308.6722" style="stroke: #A80036; stroke-width: 1.0;"/><path d="M248.009,322.7462 C248.456,336.7502 248.902,350.7362 249.258,361.9102 " fill="none" style="stroke: #A80036; stroke-width: 1.0;"/><polygon fill="none" points="241.006,322.7512,247.365,302.5382,254.999,322.3052,241.006,322.7512" style="stroke: #A80036; stroke-width: 1.0;"/><path d="M546.53,313.6102 C521.538,330.5642 495.251,348.3962 475.165,362.0222 " fill="none" style="stroke: #A80036; stroke-width: 1.0;"/><polygon fill="none" points="542.629,307.7982,563.109,302.3632,550.488,319.3832,542.629,307.7982" style="stroke: #A80036; stroke-width: 1.0;"/><path d="M626,322.7462 C626,336.7502 626,350.7362 626,361.9102 " fill="none" style="stroke: #A80036; stroke-width: 1.0;"/><polygon fill="none" points="619,322.5382,626,302.5382,633,322.5382,619,322.5382" style="stroke: #A80036; stroke-width: 1.0;"/><path d="M702.89,314.2172 C726.479,330.9422 751.187,348.4622 770.155,361.9102 " fill="none" style="stroke: #A80036; stroke-width: 1.0;"/><polygon fill="none" points="698.685,319.8162,686.418,302.5382,706.782,308.3962,698.685,319.8162" style="stroke: #A80036; stroke-width: 1.0;"/><path d="M351.994,416.6622 C307.534,431.8445 253.098,451.138 205,470.1992 C199.218,472.4904 193.133,475.0469 187.244,477.5992 " fill="none" style="stroke: #A80036; stroke-width: 1.0;"/><polygon fill="none" points="349.836,410.0022,371.024,410.2062,354.334,423.2604,349.836,410.0022" style="stroke: #A80036; stroke-width: 1.0;"/><path d="M384.994,420.551 C357.96,436.6502 326.194,455.5669 301.855,470.0609 " fill="none" style="stroke: #A80036; stroke-width: 1.0;"/><polygon fill="none" points="381.611,414.4182,402.377,410.1992,388.774,426.4471,381.611,414.4182" style="stroke: #A80036; stroke-width: 1.0;"/><path d="M418.778,427.8125 C410.989,442.0471 402.509,457.5444 395.761,469.8776 " fill="none" style="stroke: #A80036; stroke-width: 1.0;"/><polygon fill="none" points="412.674,424.3848,428.415,410.1992,424.955,431.105,412.674,424.3848" style="stroke: #A80036; stroke-width: 1.0;"/><path d="M463.222,427.8125 C471.011,442.0471 479.491,457.5444 486.239,469.8776 " fill="none" style="stroke: #A80036; stroke-width: 1.0;"/><polygon fill="none" points="457.045,431.105,453.585,410.1992,469.326,424.3848,457.045,431.105" style="stroke: #A80036; stroke-width: 1.0;"/><path d="M493.438,421.092 C518.373,437.2087 547.519,456.0468 569.766,470.426 " fill="none" style="stroke: #A80036; stroke-width: 1.0;"/><polygon fill="none" points="489.583,426.9351,476.586,410.1992,497.182,415.1772,489.583,426.9351" style="stroke: #A80036; stroke-width: 1.0;"/><path d="M520.07,417.4262 C561.205,433.1559 612.312,452.7047 658,470.1992 C663.417,472.2736 669.11,474.4542 674.741,476.6124 " fill="none" style="stroke: #A80036; stroke-width: 1.0;"/><polygon fill="none" points="517.519,423.9454,501.338,410.2642,522.519,410.8692,517.519,423.9454" style="stroke: #A80036; stroke-width: 1.0;"/></g></svg>