<?xml version="1.0" encoding="UTF-8" standalone="yes"?><svg xmlns="http://www.w3.org/2000/svg" xmlns:xlink="http://www.w3.org/1999/xlink" height="514px" style="width:747px;height:514px;" version="1.1" viewBox="0 0 747 514" width="747px"><defs><filter height="300%" id="f1" width="300%" x="-1" y="-1"><feGaussianBlur result="blurOut" stdDeviation="2.0"/><feColorMatrix in="blurOut" result="blurOut2" type="matrix" values="0 0 0 0 0 0 0 0 0 0 0 0 0 0 0 0 0 0 .4 0"/><feOffset dx="4.0" dy="4.0" in="blurOut2" result="blurOut3"/><feBlend in="SourceGraphic" in2="blurOut3" mode="normal"/></filter></defs><g><text fill="#000000" font-family="sans-serif" font-size="18" lengthAdjust="spacingAndGlyphs" textLength="232" x="262.5" y="17.4023">Music UI Page Relationship</text><rect fill="#FEFECE" filter="url(#f1)" height="86.8652" style="stroke: #A80036; stroke-width: 1.5;" width="336" x="287.5" y="29.1992"/><ellipse cx="302.95" cy="45.1992" fill="#ADD1B2" rx="11" ry="11" style="stroke: #A80036; stroke-width: 1.0;"/><path d="M305.9231,50.8423 Q305.3421,51.1411 304.7029,51.2905 Q304.0638,51.4399 303.3582,51.4399 Q300.8514,51.4399 299.5315,49.7881 Q298.2117,48.1362 298.2117,45.0151 Q298.2117,41.8857 299.5315,40.2339 Q300.8514,38.582 303.3582,38.582 Q304.0638,38.582 304.7112,38.7314 Q305.3587,38.8809 305.9231,39.1797 L305.9231,41.9023 Q305.2923,41.3213 304.6988,41.0515 Q304.1053,40.7817 303.4744,40.7817 Q302.1297,40.7817 301.4449,41.8484 Q300.7601,42.915 300.7601,45.0151 Q300.7601,47.1069 301.4449,48.1736 Q302.1297,49.2402 303.4744,49.2402 Q304.1053,49.2402 304.6988,48.9705 Q305.2923,48.7007 305.9231,48.1196 Z "/><text fill="#000000" font-family="sans-serif" font-size="12" lengthAdjust="spacingAndGlyphs" textLength="114" x="317.05" y="49.7344">NavigationFragment</text><rect fill="#FFFFFF" height="16.1328" style="stroke: #000000; stroke-width: 1.0; stroke-dasharray: 2.0,2.0;" width="187" x="439.5" y="26.1992"/><text fill="#000000" font-family="sans-serif" font-size="12" font-style="italic" lengthAdjust="spacingAndGlyphs" textLength="185" x="440.5" y="38.8008">VM extends PlayStateViewModel</text><line style="stroke: #A80036; stroke-width: 1.5;" x1="288.5" x2="622.5" y1="61.1992" y2="61.1992"/><line style="stroke: #A80036; stroke-width: 1.5;" x1="288.5" x2="622.5" y1="69.1992" y2="69.1992"/><polygon fill="#FFFF44" points="298.5,76.1768,302.5,80.1768,298.5,84.1768,294.5,80.1768" style="stroke: #B38D22; stroke-width: 1.0;"/><text fill="#000000" font-family="sans-serif" font-size="11" lengthAdjust="spacingAndGlyphs" textLength="95" x="307.5" y="83.834">String getPageId()</text><ellipse cx="298.5" cy="94.1318" fill="#84BE84" rx="3" ry="3" style="stroke: #038048; stroke-width: 1.0;"/><text fill="#000000" font-family="sans-serif" font-size="11" lengthAdjust="spacingAndGlyphs" textLength="209" x="307.5" y="96.7891">Observable&lt;Navigation&gt; navigations()</text><polygon fill="#FFFF44" points="298.5,102.0869,302.5,106.0869,298.5,110.0869,294.5,106.0869" style="stroke: #B38D22; stroke-width: 1.0;"/><text fill="#000000" font-family="sans-serif" font-size="11" lengthAdjust="spacingAndGlyphs" textLength="310" x="307.5" y="109.7441">void onNavigationRequest(boolean playing, String pageId)</text><rect fill="#FEFECE" filter="url(#f1)" height="99.8203" style="stroke: #A80036; stroke-width: 1.5;" width="339" x="124" y="176.1992"/><ellipse cx="146.65" cy="192.1992" fill="#ADD1B2" rx="11" ry="11" style="stroke: #A80036; stroke-width: 1.0;"/><path d="M149.6231,197.8423 Q149.0421,198.1411 148.4029,198.2905 Q147.7638,198.4399 147.0582,198.4399 Q144.5514,198.4399 143.2315,196.7881 Q141.9117,195.1362 141.9117,192.0151 Q141.9117,188.8857 143.2315,187.2339 Q144.5514,185.582 147.0582,185.582 Q147.7638,185.582 148.4112,185.7314 Q149.0587,185.8809 149.6231,186.1797 L149.6231,188.9023 Q148.9923,188.3213 148.3988,188.0515 Q147.8053,187.7817 147.1744,187.7817 Q145.8297,187.7817 145.1449,188.8484 Q144.4601,189.915 144.4601,192.0151 Q144.4601,194.1069 145.1449,195.1736 Q145.8297,196.2402 147.1744,196.2402 Q147.8053,196.2402 148.3988,195.9705 Q148.9923,195.7007 149.6231,195.1196 Z "/><text fill="#000000" font-family="sans-serif" font-size="12" lengthAdjust="spacingAndGlyphs" textLength="108" x="162.35" y="196.7344">MediaListFragment</text><rect fill="#FFFFFF" height="16.1328" style="stroke: #000000; stroke-width: 1.0; stroke-dasharray: 2.0,2.0;" width="180" x="286" y="173.1992"/><text fill="#000000" font-family="sans-serif" font-size="12" font-style="italic" lengthAdjust="spacingAndGlyphs" textLength="178" x="287" y="185.8008">VM extends ItemListViewModel</text><line style="stroke: #A80036; stroke-width: 1.5;" x1="125" x2="462" y1="208.1992" y2="208.1992"/><line style="stroke: #A80036; stroke-width: 1.5;" x1="125" x2="462" y1="216.1992" y2="216.1992"/><polygon fill="#FFFF44" points="135,223.1768,139,227.1768,135,231.1768,131,227.1768" style="stroke: #B38D22; stroke-width: 1.0;"/><text fill="#000000" font-family="sans-serif" font-size="11" lengthAdjust="spacingAndGlyphs" textLength="313" x="144" y="230.834">void onMusicStateChanged(MediaPlayState mediaPlayState)</text><polygon fill="#FFFF44" points="135,236.1318,139,240.1318,135,244.1318,131,240.1318" style="stroke: #B38D22; stroke-width: 1.0;"/><text fill="#000000" font-family="sans-serif" font-size="11" lengthAdjust="spacingAndGlyphs" textLength="311" x="144" y="243.7891">void onMediaItemsChanged(List&lt;MediaItem&gt; mediaItems)</text><polygon fill="#FFFF44" points="135,249.0869,139,253.0869,135,257.0869,131,253.0869" style="stroke: #B38D22; stroke-width: 1.0;"/><text fill="#000000" font-family="sans-serif" font-size="11" lengthAdjust="spacingAndGlyphs" textLength="270" x="144" y="256.7441">void onPlayActionRequest(ClickAction clickAction)</text><polygon fill="#FFFF44" points="135,262.042,139,266.042,135,270.042,131,266.042" style="stroke: #B38D22; stroke-width: 1.0;"/><text fill="#000000" font-family="sans-serif" font-size="11" lengthAdjust="spacingAndGlyphs" textLength="206" x="144" y="269.6992">MediaListAdapter getItemListAdapter()</text><rect fill="#FEFECE" filter="url(#f1)" height="48" style="stroke: #A80036; stroke-width: 1.5;" width="240" x="498.5" y="202.1992"/><ellipse cx="513.5" cy="218.1992" fill="#ADD1B2" rx="11" ry="11" style="stroke: #A80036; stroke-width: 1.0;"/><path d="M516.4731,223.8423 Q515.8921,224.1411 515.2529,224.2905 Q514.6138,224.4399 513.9082,224.4399 Q511.4014,224.4399 510.0815,222.7881 Q508.7617,221.1362 508.7617,218.0151 Q508.7617,214.8857 510.0815,213.2339 Q511.4014,211.582 513.9082,211.582 Q514.6138,211.582 515.2612,211.7314 Q515.9087,211.8809 516.4731,212.1797 L516.4731,214.9023 Q515.8423,214.3213 515.2488,214.0515 Q514.6553,213.7817 514.0244,213.7817 Q512.6797,213.7817 511.9949,214.8484 Q511.3101,215.915 511.3101,218.0151 Q511.3101,220.1069 511.9949,221.1736 Q512.6797,222.2402 514.0244,222.2402 Q514.6553,222.2402 515.2488,221.9705 Q515.8423,221.7007 516.4731,221.1196 Z "/><text fill="#000000" font-family="sans-serif" font-size="12" lengthAdjust="spacingAndGlyphs" textLength="98" x="527.5" y="222.7344">SettingsFragment</text><rect fill="#FFFFFF" height="16.1328" style="stroke: #000000; stroke-width: 1.0; stroke-dasharray: 2.0,2.0;" width="108" x="633.5" y="199.1992"/><text fill="#000000" font-family="sans-serif" font-size="12" font-style="italic" lengthAdjust="spacingAndGlyphs" textLength="106" x="634.5" y="211.8008">SettingsViewModel</text><line style="stroke: #A80036; stroke-width: 1.5;" x1="499.5" x2="737.5" y1="234.1992" y2="234.1992"/><line style="stroke: #A80036; stroke-width: 1.5;" x1="499.5" x2="737.5" y1="242.1992" y2="242.1992"/><rect fill="#FEFECE" filter="url(#f1)" height="60.9551" style="stroke: #A80036; stroke-width: 1.5;" width="251" x="6" y="336.1992"/><ellipse cx="21" cy="352.1992" fill="#ADD1B2" rx="11" ry="11" style="stroke: #A80036; stroke-width: 1.0;"/><path d="M23.9731,357.8423 Q23.3921,358.1411 22.7529,358.2905 Q22.1138,358.4399 21.4082,358.4399 Q18.9014,358.4399 17.5815,356.7881 Q16.2617,355.1362 16.2617,352.0151 Q16.2617,348.8857 17.5815,347.2339 Q18.9014,345.582 21.4082,345.582 Q22.1138,345.582 22.7612,345.7314 Q23.4087,345.8809 23.9731,346.1797 L23.9731,348.9023 Q23.3423,348.3213 22.7488,348.0515 Q22.1553,347.7817 21.5244,347.7817 Q20.1797,347.7817 19.4949,348.8484 Q18.8101,349.915 18.8101,352.0151 Q18.8101,354.1069 19.4949,355.1736 Q20.1797,356.2402 21.5244,356.2402 Q22.1553,356.2402 22.7488,355.9705 Q23.3423,355.7007 23.9731,355.1196 Z "/><text fill="#000000" font-family="sans-serif" font-size="12" lengthAdjust="spacingAndGlyphs" textLength="109" x="35" y="356.7344">GroupListFragment</text><rect fill="#FFFFFF" height="16.1328" style="stroke: #000000; stroke-width: 1.0; stroke-dasharray: 2.0,2.0;" width="108" x="152" y="333.1992"/><text fill="#000000" font-family="sans-serif" font-size="12" font-style="italic" lengthAdjust="spacingAndGlyphs" textLength="106" x="153" y="345.8008">ItemListViewModel</text><line style="stroke: #A80036; stroke-width: 1.5;" x1="7" x2="256" y1="368.1992" y2="368.1992"/><rect fill="none" height="6" style="stroke: #C82930; stroke-width: 1.0;" width="6" x="14" y="377.1768"/><text fill="#000000" font-family="sans-serif" font-size="11" lengthAdjust="spacingAndGlyphs" textLength="194" x="26" y="382.834">GroupListAdapter groupListAdapter</text><line style="stroke: #A80036; stroke-width: 1.5;" x1="7" x2="256" y1="389.1543" y2="389.1543"/><rect fill="#FEFECE" filter="url(#f1)" height="60.9551" style="stroke: #A80036; stroke-width: 1.5;" width="326" x="292.5" y="336.1992"/><ellipse cx="307.5" cy="352.1992" fill="#ADD1B2" rx="11" ry="11" style="stroke: #A80036; stroke-width: 1.0;"/><path d="M310.4731,357.8423 Q309.8921,358.1411 309.2529,358.2905 Q308.6138,358.4399 307.9082,358.4399 Q305.4014,358.4399 304.0815,356.7881 Q302.7617,355.1362 302.7617,352.0151 Q302.7617,348.8857 304.0815,347.2339 Q305.4014,345.582 307.9082,345.582 Q308.6138,345.582 309.2612,345.7314 Q309.9087,345.8809 310.4731,346.1797 L310.4731,348.9023 Q309.8423,348.3213 309.2488,348.0515 Q308.6553,347.7817 308.0244,347.7817 Q306.6797,347.7817 305.9949,348.8484 Q305.3101,349.915 305.3101,352.0151 Q305.3101,354.1069 305.9949,355.1736 Q306.6797,356.2402 308.0244,356.2402 Q308.6553,356.2402 309.2488,355.9705 Q309.8423,355.7007 310.4731,355.1196 Z "/><text fill="#000000" font-family="sans-serif" font-size="12" lengthAdjust="spacingAndGlyphs" textLength="105" x="321.5" y="356.7344">MusicListFragment</text><rect fill="#FFFFFF" height="16.1328" style="stroke: #000000; stroke-width: 1.0; stroke-dasharray: 2.0,2.0;" width="187" x="434.5" y="333.1992"/><text fill="#000000" font-family="sans-serif" font-size="12" font-style="italic" lengthAdjust="spacingAndGlyphs" textLength="185" x="435.5" y="345.8008">VM extends MusicListViewModel</text><line style="stroke: #A80036; stroke-width: 1.5;" x1="293.5" x2="617.5" y1="368.1992" y2="368.1992"/><rect fill="none" height="6" style="stroke: #C82930; stroke-width: 1.0;" width="6" x="300.5" y="377.1768"/><text fill="#000000" font-family="sans-serif" font-size="11" lengthAdjust="spacingAndGlyphs" textLength="190" x="312.5" y="382.834">MusicListAdapter musicListAdapter</text><line style="stroke: #A80036; stroke-width: 1.5;" x1="293.5" x2="617.5" y1="389.1543" y2="389.1543"/><rect fill="#FEFECE" filter="url(#f1)" height="48" style="stroke: #A80036; stroke-width: 1.5;" width="89" x="273" y="457.1992"/><ellipse cx="288" cy="473.1992" fill="#ADD1B2" rx="11" ry="11" style="stroke: #A80036; stroke-width: 1.0;"/><path d="M290.9731,478.8423 Q290.3921,479.1411 289.7529,479.2905 Q289.1138,479.4399 288.4082,479.4399 Q285.9014,479.4399 284.5815,477.7881 Q283.2617,476.1362 283.2617,473.0151 Q283.2617,469.8857 284.5815,468.2339 Q285.9014,466.582 288.4082,466.582 Q289.1138,466.582 289.7612,466.7314 Q290.4087,466.8809 290.9731,467.1797 L290.9731,469.9023 Q290.3423,469.3213 289.7488,469.0515 Q289.1553,468.7817 288.5244,468.7817 Q287.1797,468.7817 286.4949,469.8484 Q285.8101,470.915 285.8101,473.0151 Q285.8101,475.1069 286.4949,476.1736 Q287.1797,477.2402 288.5244,477.2402 Q289.1553,477.2402 289.7488,476.9705 Q290.3423,476.7007 290.9731,476.1196 Z "/><text fill="#000000" font-family="sans-serif" font-size="12" lengthAdjust="spacingAndGlyphs" textLength="57" x="302" y="477.7344">Download</text><line style="stroke: #A80036; stroke-width: 1.5;" x1="274" x2="361" y1="489.1992" y2="489.1992"/><line style="stroke: #A80036; stroke-width: 1.5;" x1="274" x2="361" y1="497.1992" y2="497.1992"/><rect fill="#FEFECE" filter="url(#f1)" height="48" style="stroke: #A80036; stroke-width: 1.5;" width="68" x="397.5" y="457.1992"/><ellipse cx="412.5" cy="473.1992" fill="#ADD1B2" rx="11" ry="11" style="stroke: #A80036; stroke-width: 1.0;"/><path d="M415.4731,478.8423 Q414.8921,479.1411 414.2529,479.2905 Q413.6138,479.4399 412.9082,479.4399 Q410.4014,479.4399 409.0815,477.7881 Q407.7617,476.1362 407.7617,473.0151 Q407.7617,469.8857 409.0815,468.2339 Q410.4014,466.582 412.9082,466.582 Q413.6138,466.582 414.2612,466.7314 Q414.9087,466.8809 415.4731,467.1797 L415.4731,469.9023 Q414.8423,469.3213 414.2488,469.0515 Q413.6553,468.7817 413.0244,468.7817 Q411.6797,468.7817 410.9949,469.8484 Q410.3101,470.915 410.3101,473.0151 Q410.3101,475.1069 410.9949,476.1736 Q411.6797,477.2402 413.0244,477.2402 Q413.6553,477.2402 414.2488,476.9705 Q414.8423,476.7007 415.4731,476.1196 Z "/><text fill="#000000" font-family="sans-serif" font-size="12" lengthAdjust="spacingAndGlyphs" textLength="36" x="426.5" y="477.7344">Loacal</text><line style="stroke: #A80036; stroke-width: 1.5;" x1="398.5" x2="464.5" y1="489.1992" y2="489.1992"/><line style="stroke: #A80036; stroke-width: 1.5;" x1="398.5" x2="464.5" y1="497.1992" y2="497.1992"/><rect fill="#FEFECE" filter="url(#f1)" height="48" style="stroke: #A80036; stroke-width: 1.5;" width="84" x="500.5" y="457.1992"/><ellipse cx="515.5" cy="473.1992" fill="#ADD1B2" rx="11" ry="11" style="stroke: #A80036; stroke-width: 1.0;"/><path d="M518.4731,478.8423 Q517.8921,479.1411 517.2529,479.2905 Q516.6138,479.4399 515.9082,479.4399 Q513.4014,479.4399 512.0815,477.7881 Q510.7617,476.1362 510.7617,473.0151 Q510.7617,469.8857 512.0815,468.2339 Q513.4014,466.582 515.9082,466.582 Q516.6138,466.582 517.2612,466.7314 Q517.9087,466.8809 518.4731,467.1797 L518.4731,469.9023 Q517.8423,469.3213 517.2488,469.0515 Q516.6553,468.7817 516.0244,468.7817 Q514.6797,468.7817 513.9949,469.8484 Q513.3101,470.915 513.3101,473.0151 Q513.3101,475.1069 513.9949,476.1736 Q514.6797,477.2402 516.0244,477.2402 Q516.6553,477.2402 517.2488,476.9705 Q517.8423,476.7007 518.4731,476.1196 Z "/><text fill="#000000" font-family="sans-serif" font-size="12" lengthAdjust="spacingAndGlyphs" textLength="52" x="529.5" y="477.7344">Favoriate</text><line style="stroke: #A80036; stroke-width: 1.5;" x1="501.5" x2="583.5" y1="489.1992" y2="489.1992"/><line style="stroke: #A80036; stroke-width: 1.5;" x1="501.5" x2="583.5" y1="497.1992" y2="497.1992"/><rect fill="#FEFECE" filter="url(#f1)" height="48" style="stroke: #A80036; stroke-width: 1.5;" width="72" x="619.5" y="457.1992"/><ellipse cx="634.5" cy="473.1992" fill="#ADD1B2" rx="11" ry="11" style="stroke: #A80036; stroke-width: 1.0;"/><path d="M637.4731,478.8423 Q636.8921,479.1411 636.2529,479.2905 Q635.6138,479.4399 634.9082,479.4399 Q632.4014,479.4399 631.0815,477.7881 Q629.7617,476.1362 629.7617,473.0151 Q629.7617,469.8857 631.0815,468.2339 Q632.4014,466.582 634.9082,466.582 Q635.6138,466.582 636.2612,466.7314 Q636.9087,466.8809 637.4731,467.1797 L637.4731,469.9023 Q636.8423,469.3213 636.2488,469.0515 Q635.6553,468.7817 635.0244,468.7817 Q633.6797,468.7817 632.9949,469.8484 Q632.3101,470.915 632.3101,473.0151 Q632.3101,475.1069 632.9949,476.1736 Q633.6797,477.2402 635.0244,477.2402 Q635.6553,477.2402 636.2488,476.9705 Q636.8423,476.7007 637.4731,476.1196 Z "/><text fill="#000000" font-family="sans-serif" font-size="12" lengthAdjust="spacingAndGlyphs" textLength="40" x="648.5" y="477.7344">History</text><line style="stroke: #A80036; stroke-width: 1.5;" x1="620.5" x2="690.5" y1="489.1992" y2="489.1992"/><line style="stroke: #A80036; stroke-width: 1.5;" x1="620.5" x2="690.5" y1="497.1992" y2="497.1992"/><rect fill="#FEFECE" filter="url(#f1)" height="48" style="stroke: #A80036; stroke-width: 1.5;" width="59" x="27" y="457.1992"/><ellipse cx="42" cy="473.1992" fill="#ADD1B2" rx="11" ry="11" style="stroke: #A80036; stroke-width: 1.0;"/><path d="M44.9731,478.8423 Q44.3921,479.1411 43.7529,479.2905 Q43.1138,479.4399 42.4082,479.4399 Q39.9014,479.4399 38.5815,477.7881 Q37.2617,476.1362 37.2617,473.0151 Q37.2617,469.8857 38.5815,468.2339 Q39.9014,466.582 42.4082,466.582 Q43.1138,466.582 43.7612,466.7314 Q44.4087,466.8809 44.9731,467.1797 L44.9731,469.9023 Q44.3423,469.3213 43.7488,469.0515 Q43.1553,468.7817 42.5244,468.7817 Q41.1797,468.7817 40.4949,469.8484 Q39.8101,470.915 39.8101,473.0151 Q39.8101,475.1069 40.4949,476.1736 Q41.1797,477.2402 42.5244,477.2402 Q43.1553,477.2402 43.7488,476.9705 Q44.3423,476.7007 44.9731,476.1196 Z "/><text fill="#000000" font-family="sans-serif" font-size="12" lengthAdjust="spacingAndGlyphs" textLength="27" x="56" y="477.7344">Mine</text><line style="stroke: #A80036; stroke-width: 1.5;" x1="28" x2="85" y1="489.1992" y2="489.1992"/><line style="stroke: #A80036; stroke-width: 1.5;" x1="28" x2="85" y1="497.1992" y2="497.1992"/><rect fill="#FEFECE" filter="url(#f1)" height="48" style="stroke: #A80036; stroke-width: 1.5;" width="69" x="121" y="457.1992"/><ellipse cx="136" cy="473.1992" fill="#ADD1B2" rx="11" ry="11" style="stroke: #A80036; stroke-width: 1.0;"/><path d="M138.9731,478.8423 Q138.3921,479.1411 137.7529,479.2905 Q137.1138,479.4399 136.4082,479.4399 Q133.9014,479.4399 132.5815,477.7881 Q131.2617,476.1362 131.2617,473.0151 Q131.2617,469.8857 132.5815,468.2339 Q133.9014,466.582 136.4082,466.582 Q137.1138,466.582 137.7612,466.7314 Q138.4087,466.8809 138.9731,467.1797 L138.9731,469.9023 Q138.3423,469.3213 137.7488,469.0515 Q137.1553,468.7817 136.5244,468.7817 Q135.1797,468.7817 134.4949,469.8484 Q133.8101,470.915 133.8101,473.0151 Q133.8101,475.1069 134.4949,476.1736 Q135.1797,477.2402 136.5244,477.2402 Q137.1553,477.2402 137.7488,476.9705 Q138.3423,476.7007 138.9731,476.1196 Z "/><text fill="#000000" font-family="sans-serif" font-size="12" lengthAdjust="spacingAndGlyphs" textLength="37" x="150" y="477.7344">Offline</text><line style="stroke: #A80036; stroke-width: 1.5;" x1="122" x2="189" y1="489.1992" y2="489.1992"/><line style="stroke: #A80036; stroke-width: 1.5;" x1="122" x2="189" y1="497.1992" y2="497.1992"/><path d="M394.996,130.2822 C378.945,145.2922 361.745,161.3772 346.149,175.9622 " fill="none" style="stroke: #A80036; stroke-width: 1.0;"/><polygon fill="none" points="390.554,124.8522,409.943,116.3032,400.117,135.0772,390.554,124.8522" style="stroke: #A80036; stroke-width: 1.0;"/><path d="M516.253,130.1662 C543.09,155.1092 573.143,183.0422 593.681,202.1312 " fill="none" style="stroke: #A80036; stroke-width: 1.0;"/><polygon fill="none" points="511.222,135.0472,501.338,116.3032,520.753,124.7922,511.222,135.0472" style="stroke: #A80036; stroke-width: 1.0;"/><path d="M220.617,289.5092 C201.698,305.6842 182.181,322.3702 166.253,335.9872 " fill="none" style="stroke: #A80036; stroke-width: 1.0;"/><polygon fill="none" points="216.178,284.0952,235.929,276.4192,225.276,294.7362,216.178,284.0952" style="stroke: #A80036; stroke-width: 1.0;"/><path d="M366.383,289.5092 C385.302,305.6842 404.819,322.3702 420.747,335.9872 " fill="none" style="stroke: #A80036; stroke-width: 1.0;"/><polygon fill="none" points="361.724,294.7362,351.071,276.4192,370.822,284.0952,361.724,294.7362" style="stroke: #A80036; stroke-width: 1.0;"/><path d="M100.6882,413.9168 C90.8329,428.6998 80.3407,444.4382 72.0543,456.8678 " fill="none" style="stroke: #A80036; stroke-width: 1.0;"/><polygon fill="none" points="94.8762,410.0154,111.795,397.2572,106.525,417.7812,94.8762,410.0154" style="stroke: #A80036; stroke-width: 1.0;"/><path d="M141.979,416.8202 C144.948,430.7386 148.044,445.2488 150.523,456.8678 " fill="none" style="stroke: #A80036; stroke-width: 1.0;"/><polygon fill="none" points="135.133,418.2776,137.806,397.2572,148.825,415.3566,135.133,418.2776" style="stroke: #A80036; stroke-width: 1.0;"/><path d="M403.507,410.0849 C384.061,425.9377 362.693,443.3573 346.12,456.8678 " fill="none" style="stroke: #A80036; stroke-width: 1.0;"/><polygon fill="none" points="399.317,404.4692,419.242,397.2572,408.163,415.3201,399.317,404.4692" style="stroke: #A80036; stroke-width: 1.0;"/><path d="M445.021,416.8202 C442.052,430.7386 438.956,445.2488 436.477,456.8678 " fill="none" style="stroke: #A80036; stroke-width: 1.0;"/><polygon fill="none" points="438.175,415.3566,449.194,397.2572,451.867,418.2776,438.175,415.3566" style="stroke: #A80036; stroke-width: 1.0;"/><path d="M490.869,413.4351 C502.409,428.3573 514.74,444.3031 524.457,456.8678 " fill="none" style="stroke: #A80036; stroke-width: 1.0;"/><polygon fill="none" points="485.056,417.3606,478.358,397.2572,496.131,408.7961,485.056,417.3606" style="stroke: #A80036; stroke-width: 1.0;"/><path d="M525.577,407.1174 C557.232,424.9234 593.293,445.2078 619.379,459.8813 " fill="none" style="stroke: #A80036; stroke-width: 1.0;"/><polygon fill="none" points="522.047,413.1636,508.048,397.2572,528.911,400.9612,522.047,413.1636" style="stroke: #A80036; stroke-width: 1.0;"/></g></svg>